<svg id="Calque_1" data-name="Calque 1" xmlns="http://www.w3.org/2000/svg" viewBox="0 0 432 432"><defs><style>.cls-1{fill:#221e20;}.cls-2{fill:#b77832;}.cls-3{fill:#e7413e;}</style></defs><title>Free</title><path d="M243.72,121.44a14.67,14.67,0,0,0-3.95-5.6c-4.12-3.57-8.78-3.86-13.32-.83a19.47,19.47,0,0,0-6.95,8.49c-.72,1.6-1.32,3.25-2.07,5.12a7.73,7.73,0,0,1-.25-.81c-.32-2.14-.6-4.29-.94-6.43s-.72-4.46-1.17-6.67a6.93,6.93,0,0,0-.9-2.24,2.47,2.47,0,0,0-2.71-1.1c-1.08.19-1.44,1-1.6,1.94a10,10,0,0,0-.15,1.21c-.08,1.85-.19,3.7-.22,5.56-.19,10.27.59,20.5,1.38,30.73.44,5.58.93,11.17,1.55,16.73.33,2.91,1,5.78,1.54,8.66a2.89,2.89,0,0,0,1.48,2.16,3.82,3.82,0,0,0,5.79-3.4c0-2.35-.09-4.7-.2-7q-.28-5.68-.64-11.37c-.17-2.66-.51-5.32-.53-8a53.88,53.88,0,0,1,1-11.18,44.29,44.29,0,0,1,4.51-12.72,14.17,14.17,0,0,1,5-5.44c2.7-1.64,3.28-1.82,4.92,1.48a20.85,20.85,0,0,1,1.45,4.49,64,64,0,0,1,1.43,13.87c.1,8.13.07,16.27.09,24.41,0,2.93,0,5.87.05,8.81a20.3,20.3,0,0,0,.18,2.7,3.72,3.72,0,0,0,2.62,3.31,4,4,0,0,0,4.28-1.29,4.42,4.42,0,0,0,1.06-2.73c.05-1.22.06-2.44.11-3.66.24-5.55.52-11.1.7-16.66a135.49,135.49,0,0,0-.73-21.12A44,44,0,0,0,243.72,121.44Z"/><path d="M188.07,113.15a2,2,0,0,0-2.68.49c-1.23,1.26-2.43,2.56-3.6,3.87q-6.81,7.56-13.57,15.15c-.69.76-1.3,1.6-2.13,2.64-.09-.49-.13-.65-.14-.82-.44-7-.87-14.07-1.33-21.1a25.43,25.43,0,0,0-.45-3.49,3.53,3.53,0,0,0-3-2.92,2.15,2.15,0,0,0-2.69,1.65,5.36,5.36,0,0,0-.2,1.06c-.24,2.93-.62,5.85-.69,8.78q-.33,14-.45,27.93c-.06,7.68.11,15.37.68,23a26.74,26.74,0,0,0,1.16,6.93,3.69,3.69,0,0,0,4,2.57,3.52,3.52,0,0,0,3.59-2.89,7.42,7.42,0,0,0,.31-1.6c.16-3.52.43-7,.41-10.55,0-4.75-.3-9.49-.46-14.23,0-.47,0-.93,0-1.4l.28-.12c1,1.13,2.11,2.2,3,3.41A45.25,45.25,0,0,1,177.41,166c1,3.24,1.63,6.56,2.44,9.85a3.74,3.74,0,0,0,4.57,2.79,3.55,3.55,0,0,0,2.94-4,52.28,52.28,0,0,0-9-23.28,25.3,25.3,0,0,0-8.13-7.65c-.1-.06-.17-.2-.32-.38.64-1,1.24-2.07,2-3.06,1.78-2.5,3.61-5,5.44-7.44,2.8-3.77,5.65-7.51,8.42-11.31a42.71,42.71,0,0,0,2.57-4.14,7.67,7.67,0,0,0,.77-2.15A1.76,1.76,0,0,0,188.07,113.15Z"/><path d="M283,145a7.69,7.69,0,0,0-4.73-.77,41,41,0,0,0-4.56.63,51.26,51.26,0,0,0-5.59,1.52,2,2,0,0,0-1.58,2c.09,1.13,1,1.57,2,1.69a26.21,26.21,0,0,0,3.76.13c2.27-.08,2.55.08,3.2,2.29a7.92,7.92,0,0,1,.28,1.19c.2,1.52.45,3,.55,4.56a19.69,19.69,0,0,1-2.51,11.48c-1.35,2.33-2.43,2.59-4.73,1.16a13.34,13.34,0,0,1-5.28-7,34.74,34.74,0,0,1-1.92-8.16,108.82,108.82,0,0,1-.64-23.93,59.49,59.49,0,0,1,2.3-12.64,15.78,15.78,0,0,1,1.34-3.1c.89-1.56,1.53-1.65,3-.61a6.33,6.33,0,0,1,.95.76,11.56,11.56,0,0,1,3.49,6.44,2,2,0,0,0,2.11,1.82,1.93,1.93,0,0,0,2-2,6,6,0,0,0-.17-1.74,13.28,13.28,0,0,0-7-8.7,7.32,7.32,0,0,0-6.17-.31,8.92,8.92,0,0,0-3.84,2.92A23.94,23.94,0,0,0,255.9,121a61.83,61.83,0,0,0-3.78,18.52c-.22,3.87-.19,7.77-.08,11.65a57.68,57.68,0,0,0,1.73,13,20.49,20.49,0,0,0,5.17,9.39,13.25,13.25,0,0,0,8.36,4.36A11.86,11.86,0,0,0,279,172.06a25.25,25.25,0,0,0,2.17-4.65,23,23,0,0,0,1.34-12.64c-.34-1.75-1-3.45-1.51-5.21a18.61,18.61,0,0,0,2.24-1.23C284.7,147.28,284.56,145.91,283,145Z"/><path d="M201.86,129.6c-.18-3.66-.27-7.31-.47-11a13.34,13.34,0,0,0-.56-3.19,2.7,2.7,0,0,0-2.91-1.75c-1.09.09-1.71.67-2,2a12.89,12.89,0,0,0-.4,2.13c-.24,3.15-.59,6.3-.62,9.46q-.09,7.79.19,15.58c.14,4.2.47,8.39.81,12.58.39,5,.89,10,1.32,15,.12,1.31.16,2.62.25,3.92a2.38,2.38,0,0,0,1,1.85,3.82,3.82,0,0,0,3.87.28,2.91,2.91,0,0,0,1.82-2.91c0-1.62.1-3.25.15-4.87-.05-8.38-1.1-16.69-1.66-25C202.3,139,202.08,134.29,201.86,129.6Z"/><path d="M208.83,248.53A30.57,30.57,0,0,0,215.3,243a15.1,15.1,0,0,0,3.36-12.67c-1.06-6.33-6.62-11.12-13.24-12a16.93,16.93,0,0,0-10.93,2.28,3.25,3.25,0,0,0-1.92,2.72c-.16,2.66-.42,5.32-.36,8,.19,7.9.52,15.8.78,23.7.21,6.27.37,12.55.58,18.82.07,2.12.22,4.24.33,6.36a2,2,0,0,0,.95,1.7c1.78,1.09,4.83-.07,5.07-2.15.16-1.35.45-2.68.51-4,.23-5.1.39-10.2.57-15.29l.18-.22a2.12,2.12,0,0,0,.17.52,98,98,0,0,1,8.37,15.94c.24.63.52,1.25.79,1.87a4.31,4.31,0,0,0,3,2.5c2.76.76,5.26-1.1,5.05-3.75a5.3,5.3,0,0,0-.45-1.55c-1.28-2.89-2.51-5.8-3.89-8.65-2.65-5.46-5.64-10.72-9.84-15.18-.06-.06-.06-.16-.11-.33.25-.19.52-.41.81-.6C206.34,250.17,207.6,249.37,208.83,248.53Zm-8.43-.48c-.06,0-.17,0-.33,0-.88-8.12-1.76-16.27-2.67-24.61,1.3-.17,2.58-.39,3.86-.48a14.73,14.73,0,0,1,3,0c3.73.48,7.37,4.08,7.7,8.79a12.65,12.65,0,0,1-3.28,9.73A38.94,38.94,0,0,1,200.4,248.05Z"/><path d="M187.37,255a6.28,6.28,0,0,0-1.74-.19,52.43,52.43,0,0,0-7.81.66c-1.26.13-2.52.21-3.77.4a4,4,0,0,0-1.63.58,1.24,1.24,0,0,0,0,2.28,4.77,4.77,0,0,0,1.63.63c1.9.31,3.82.55,5.86.84.17,1.19.28,2.54.56,3.85.87,4,0,7.71-1.67,11.32a6,6,0,0,1-2.41,2.69,1.73,1.73,0,0,1-2.25-.13,12.73,12.73,0,0,1-2.33-2.43A38.9,38.9,0,0,1,169,270a73.7,73.7,0,0,1-4.43-16.58,46.25,46.25,0,0,1,.64-19.1,26.45,26.45,0,0,1,3.57-8.44,13.93,13.93,0,0,1,1.92-2.08,1.77,1.77,0,0,1,2-.27,7.83,7.83,0,0,1,4,3.34c.51.86,1,1.74,1.45,2.6a2.13,2.13,0,0,0,2.6.87c.83-.31,1-.79.87-2-.6-4.94-5-8.23-8.63-9.07a9.06,9.06,0,0,0-2.55-.17,11.38,11.38,0,0,0-7.65,3.91,25.06,25.06,0,0,0-4.34,6.52,43.56,43.56,0,0,0-4.12,17.81,57.93,57.93,0,0,0,2.12,16.88,43.81,43.81,0,0,0,5,12.1,17.13,17.13,0,0,0,7.3,6.47,9.43,9.43,0,0,0,6.07.8,12.82,12.82,0,0,0,9.23-7.09c2.56-5.11,3.12-10.43.74-15.83-.2-.48-.35-1-.54-1.53.82-.28,1.52-.47,2.18-.75a5,5,0,0,0,1.51-.86A1.42,1.42,0,0,0,187.37,255Z"/><path d="M262.05,276.94a8.46,8.46,0,0,0-2.79-1.07c-1.67-.31-3.39-.42-5.3-.64,0-.6,0-1.1,0-1.6-.1-5.45-.12-10.89-.32-16.34a285.25,285.25,0,0,0-2.9-31.16,44.5,44.5,0,0,0-.84-4.61,3,3,0,0,0-3-2.26,2.68,2.68,0,0,0-2.87,2.19,20.2,20.2,0,0,0-.86,3.83,161.73,161.73,0,0,0-.68,23q.3,8.7.68,17.39c.16,3.52.3,7.05.58,10.57.24,2.92,1.71,4.49,4.55,5.07a35.22,35.22,0,0,0,10.7.17,7.46,7.46,0,0,0,3.28-1.4A1.76,1.76,0,0,0,262.05,276.94Z"/><path d="M234.84,248.54c-.56-7.87-1.23-15.72-1.91-23.58a23.62,23.62,0,0,0-.79-4.32,3.12,3.12,0,0,0-3.34-2.12c-1.42,0-2.18.67-2.67,2.26a7.85,7.85,0,0,0-.27,1.14c-.19,1.66-.35,3.31-.58,5.52.1,6.81.13,14.16.36,21.5s.67,14.87,1.08,22.31c.13,2.54.41,5.07.68,7.6a3.31,3.31,0,0,0,2.78,3.18A4.6,4.6,0,0,0,236,277.6c0-3.33,0-6.67-.12-10C235.63,261.25,235.29,254.89,234.84,248.54Z"/><path d="M286.09,277.14a8.46,8.46,0,0,0-2.79-1.07c-1.67-.31-3.39-.42-5.3-.64,0-.6,0-1.1,0-1.6-.1-5.45-.12-10.89-.32-16.34a285.25,285.25,0,0,0-2.9-31.16,44.5,44.5,0,0,0-.84-4.61,3,3,0,0,0-3.05-2.26,2.66,2.66,0,0,0-2.86,2.19,19.48,19.48,0,0,0-.87,3.83,161.73,161.73,0,0,0-.68,23q.3,8.7.68,17.39c.16,3.52.3,7,.58,10.57.24,2.92,1.71,4.49,4.55,5.07a34.91,34.91,0,0,0,10.7.16,7.33,7.33,0,0,0,3.28-1.39A1.76,1.76,0,0,0,286.09,277.14Z"/><path class="cls-1" d="M191.06,199.59a12.31,12.31,0,0,1,.79-4.69,6.83,6.83,0,0,1,2-2.81,4.09,4.09,0,0,1,2.58-.94,4,4,0,0,1,2.57.94,6.74,6.74,0,0,1,2,2.81,12.12,12.12,0,0,1,.79,4.69c0,.59,0,1.21-.08,1.88a13.26,13.26,0,0,1-.32,2,9.65,9.65,0,0,1-.67,1.87,5.42,5.42,0,0,1-1.11,1.54,4.19,4.19,0,0,1-1.47.92,5.05,5.05,0,0,1-3.43,0,4.19,4.19,0,0,1-1.47-.92,5.17,5.17,0,0,1-1.09-1.54,9.63,9.63,0,0,1-.66-1.87,12.07,12.07,0,0,1-.32-2C191.09,200.8,191.06,200.18,191.06,199.59Zm5.37,5.92a2.52,2.52,0,0,0,1.74-.66,4.37,4.37,0,0,0,1-1.53,7.2,7.2,0,0,0,.46-1.84,15.32,15.32,0,0,0,.11-1.61,11.85,11.85,0,0,0-.36-3.25,5,5,0,0,0-.89-1.86,2.51,2.51,0,0,0-1.1-.83,3.16,3.16,0,0,0-1-.19,3.21,3.21,0,0,0-1,.19,2.41,2.41,0,0,0-1.1.84,5.72,5.72,0,0,0-.89,1.87,11.35,11.35,0,0,0-.34,3.28c0,.29,0,.63,0,1a8.85,8.85,0,0,0,.18,1.21,8.54,8.54,0,0,0,.36,1.22,4.05,4.05,0,0,0,.6,1.08,2.81,2.81,0,0,0,.91.77A2.66,2.66,0,0,0,196.43,205.51Z"/><path class="cls-1" d="M203.4,191.25l1.61.09c.59,0,1.22.06,1.89.08s1.37,0,2.09,0,1.43-.07,2.15-.15V194c-.86-.14-1.68-.25-2.47-.32s-1.53-.13-2.25-.16c-.08.61-.14,1.19-.19,1.76s-.09,1.15-.12,1.74-.05,1.2-.06,1.83,0,1.32,0,2c.47,0,.94-.09,1.43-.17s1-.18,1.54-.31v2.78a13.2,13.2,0,0,0-1.51-.32c-.48-.07-.94-.13-1.39-.16,0,.83.1,1.68.18,2.53s.21,1.78.35,2.79h-3.31a59,59,0,0,0,.64-8.46A55.87,55.87,0,0,0,203.4,191.25Z"/><path class="cls-1" d="M220.58,191.37l1.69.07c.63,0,1.3,0,2,0s1.36,0,2,0l1.69-.07a8.45,8.45,0,0,0,1.1-.12V194a20,20,0,0,0-3.35-.46,54,54,0,0,0-.37,7.08,51.32,51.32,0,0,0,.61,7.37h-3.31a56.11,56.11,0,0,0,.6-7.38,55.34,55.34,0,0,0-.36-7.07,20.28,20.28,0,0,0-3.36.46v-2.78A7.86,7.86,0,0,0,220.58,191.37Z"/><path class="cls-1" d="M240.28,191.22a58.94,58.94,0,0,0-.61,8.32,56.54,56.54,0,0,0,.61,8.48H237c.16-1,.28-1.9.36-2.74s.15-1.67.19-2.48h-4c0,.81.09,1.64.18,2.48s.2,1.75.35,2.74h-3.31a59,59,0,0,0,.62-8.47,56.15,56.15,0,0,0-.62-8.33H234c-.23,1.54-.39,3.07-.5,4.6s-.14,3.19-.1,5h4.17c0-1.77,0-3.43-.14-5s-.26-3.07-.49-4.59Z"/><path class="cls-1" d="M242.53,191.25c.67.08,1.38.13,2.13.17s1.48,0,2.19,0,1.35,0,2-.07a13.89,13.89,0,0,0,1.49-.16V194c-.87-.14-1.69-.25-2.47-.33s-1.54-.14-2.25-.17c-.07.61-.12,1.19-.17,1.76s-.09,1.15-.12,1.74-.06,1.21-.07,1.84,0,1.32,0,2c.46,0,.93-.08,1.42-.16a13.28,13.28,0,0,0,1.57-.32v2.78c-.53-.13-1-.23-1.52-.31s-1-.14-1.4-.17c0,.23,0,.44.05.64s0,.41.06.64,0,.49.08.78.07.63.12,1c.72,0,1.46-.08,2.24-.16s1.59-.2,2.46-.34v2.78c-.82-.1-1.57-.17-2.24-.22s-1.33-.07-1.93-.07-1.21,0-1.8.06-1.22.1-1.87.18a58.82,58.82,0,0,0,.66-8.39A53.42,53.42,0,0,0,242.53,191.25Z"/><path class="cls-2" d="M266.54,69.37a6.77,6.77,0,0,0-4.93-4.73c-3.76-.73-7.24,3.51-6.11,6.57a4.9,4.9,0,0,1,.11.65,2.51,2.51,0,0,1-.35.28,126,126,0,0,0-15.18,9.18,12.4,12.4,0,0,1-1.34.74c-2.54-4.24-4.31-8.67-6.44-12.94.35-.24.62-.41.86-.61a4.84,4.84,0,0,0,0-7.89,6.19,6.19,0,0,0-7.78.09,3.59,3.59,0,0,0-1.53,2.89,5.52,5.52,0,0,0,1.54,4.08l.77.82c-1.47,2.15-2.84,4.22-4.3,6.23C221,75.94,220,77.05,219,78.18a5.35,5.35,0,0,1-.8.62l-9.79-10.86a4.94,4.94,0,0,0,1.74-3.39,5.61,5.61,0,0,0-3.6-5.38,5.5,5.5,0,0,0-6.2,1.38,13.25,13.25,0,0,0-.9,1.19,4.32,4.32,0,0,0,.34,5.79c.27.3.56.57.87.89l-1.42,3.41c-1,2.33-1.92,4.68-2.92,7a20.08,20.08,0,0,1-1,1.8L186,75.05l.3-.58a4.34,4.34,0,0,0-1.38-6,7.52,7.52,0,0,0-5.76-1.44,4.91,4.91,0,0,0-4.26,3.49c-.63,2,.25,3.7,1.75,5.08a7,7,0,0,0,3.74,1.62c.7,1.88,1.31,3.67,2,5.43,1.88,4.64,2.69,9.55,3.77,14.4a7.47,7.47,0,0,1,.09,1.07c.08,1.13.08,2.26.24,3.38s.53,1.4,1.76,1c1.56-.44,3.12-1,4.71-1.26A149.81,149.81,0,0,1,215.07,99a106.05,106.05,0,0,1,16.52.59c1.52.17,3,.43,4.54.72,3,.6,6,1.25,9,1.87,1.81.37,3.64.67,5.44,1.07,1.25.28,1.61.13,2-1.11,1.25-4.11,2.4-8.24,3.77-12.31,1.48-4.4,3.18-8.74,4.73-13.12a1.89,1.89,0,0,1,1.55-1.41A5,5,0,0,0,266.54,69.37Z"/><path class="cls-3" d="M176.63,349.38l7.92,5.08-1.88,3.18Q179.31,363.33,176,369c-.66,1.1-1.33,2.2-2.08,3.23a1.77,1.77,0,0,1-2.53.76,30.87,30.87,0,0,1-4.47-2.64c-1.13-.81-1.17-1.59-.48-2.83,3.24-5.81,6.51-11.61,9.76-17.41C176.28,349.89,176.43,349.69,176.63,349.38Z"/><path class="cls-3" d="M265.37,349.38l-7.91,5.08,1.88,3.18q3.36,5.69,6.72,11.36c.65,1.1,1.33,2.2,2.07,3.23a1.78,1.78,0,0,0,2.54.76,30.87,30.87,0,0,0,4.47-2.64c1.12-.81,1.17-1.59.48-2.83q-4.87-8.72-9.77-17.41C265.73,349.89,265.58,349.69,265.37,349.38Z"/><path class="cls-3" d="M291.41,290.76a70.73,70.73,0,0,1-141.46,0Z"/><path class="cls-2" d="M152.33,277.4c-2.91-15.14-5.36-30.3,0-45.21,4.24-11.74,12.42-23.86,11.12-36.88-.84-8.47-8.55-17.45-17.74-13.38-7.57,3.36-7.35,14.18.71,16.68,2.72.84,3.89-3.43,1.17-4.27-5.05-1.57-3.25-7.44.78-8.69a7.37,7.37,0,0,1,6.7,1.65c4.48,3.71,4.52,10.22,3.57,15.46-1.54,8.48-5.71,16.21-9,24.12-7,17.17-5,33.91-1.64,51.7.54,2.79,4.81,1.61,4.27-1.18Z"/><path class="cls-2" d="M287.33,251.12a39.8,39.8,0,0,0,1.31-33.78c-2.56-6-7.78-10.16-10.49-16-1.66-3.55-2.32-8.16,1.64-10.13,2.41-1.2,6.46-.8,8.27,1.48s4.88-.92,3.13-3.13c-3-3.8-9.37-4.31-13.44-2.3-5,2.49-6.19,7.68-4.73,12.91,2.25,8.06,9.76,13.26,12.5,21.27a35.26,35.26,0,0,1-2,27.42c-1.3,2.53,2.52,4.77,3.82,2.23Z"/><path class="cls-2" d="M260.69,218.28c5.18-6.68,7.95-14.89,6.57-23.38-.78-4.84-4.93-11.8-10.92-8.05-2.41,1.51-.19,5.34,2.23,3.82,4.32-2.7,4.7,8.32,4.57,10.24a26.07,26.07,0,0,1-5.58,14.24c-1.73,2.23,1.38,5.38,3.13,3.13Z"/><path class="cls-2" d="M187.05,214.92c-1.84-4.38-5.06-7.56-7.25-11.7-2.45-4.64-5.2-15.92,2.46-17.21,2.8-.47,1.61-4.74-1.18-4.27-6.27,1.06-8.51,7.18-8.18,12.94a25.43,25.43,0,0,0,2.32,9.26c2,4.4,5.67,7.67,7.57,12.16,1.08,2.59,5.37,1.45,4.26-1.18Z"/></svg>